<svg width="400" height="400" viewBox="0 0 400 400" fill="none" xmlns="http://www.w3.org/2000/svg">
<g clip-path="url(#clip0_671_2)">
<path d="M197.106 400C182.447 478.255 113.772 537.477 31.2617 537.477C-61.9299 537.477 -137.477 461.93 -137.477 368.738C-137.477 286.228 -78.2552 217.552 0 202.893V400H197.106ZM200.001 31.0508C200.001 31.1211 200 31.1914 200 31.2617C200 124.453 275.547 200 368.738 200C368.809 200 368.879 199.998 368.949 199.998V200.001C368.879 200.001 368.809 200 368.738 200C275.547 200 200 275.547 200 368.738C200 368.809 200.001 368.879 200.001 368.949H199.999C199.999 368.879 200 368.809 200 368.738C200 275.547 124.453 200 31.2617 200C31.1914 200 31.1211 200.001 31.0508 200.001V199.998C31.1211 199.998 31.1914 200 31.2617 200C124.453 200 200 124.453 200 31.2617C200 31.1914 199.999 31.1211 199.999 31.0508H200.001ZM0 0V197.106C-78.2551 182.447 -137.477 113.772 -137.477 31.2617C-137.477 -61.9299 -61.9299 -137.477 31.2617 -137.477C113.772 -137.477 182.447 -78.2551 197.106 0H0ZM400 202.893C478.255 217.552 537.477 286.228 537.477 368.738C537.477 461.93 461.93 537.477 368.738 537.477C286.228 537.477 217.553 478.255 202.894 400H400V202.893ZM202.894 0C217.553 -78.2551 286.228 -137.477 368.738 -137.477C461.93 -137.477 537.477 -61.9299 537.477 31.2617C537.477 113.772 478.255 182.447 400 197.106V0H202.894Z" fill="white"/>
</g>
<defs>
<clipPath id="clip0_671_2">
<rect width="400" height="400" fill="white"/>
</clipPath>
</defs>
</svg>
